<?xml version="1.0" standalone="no"?>
<!DOCTYPE svg PUBLIC "-//W3C//DTD SVG 1.1//EN" "http://www.w3.org/Graphics/SVG/1.1/DTD/svg11.dtd" >
<svg xmlns="http://www.w3.org/2000/svg">
<metadata>
Created by FontForge 20120731 at Wed Oct 14 17:05:39 2015
 By Ads
</metadata>
<defs>
<font id="5ufont" horiz-adv-x="1024" >
  <font-face 
    font-family="5ufont"
    font-weight="500"
    font-stretch="normal"
    units-per-em="1024"
    panose-1="2 0 6 3 0 0 0 0 0 0"
    ascent="812"
    descent="-212"
    x-height="792"
    bbox="34 -163 960 792"
    underline-thickness="50"
    underline-position="-100"
    unicode-range="U+0078-E616"
  />
<missing-glyph horiz-adv-x="374" 
d="M34 0v682h272v-682h-272zM68 34h204v614h-204v-614z" />
    <glyph glyph-name=".notdef" horiz-adv-x="374" 
d="M34 0v682h272v-682h-272zM68 34h204v614h-204v-614z" />
    <glyph glyph-name=".null" horiz-adv-x="0" 
 />
    <glyph glyph-name="nonmarkingreturn" horiz-adv-x="341" 
 />
    <glyph glyph-name="x" unicode="x" horiz-adv-x="1001" 
d="M281 543q-27 -1 -53 -1h-83q-18 0 -36.5 -6t-32.5 -18.5t-23 -32t-9 -45.5v-76h912v41q0 16 -0.5 30t-0.5 18q0 13 -5 29t-17 29.5t-31.5 22.5t-49.5 9h-133v-97h-438v97zM955 310v-52q0 -23 0.5 -52t0.5 -58t-10.5 -47.5t-26 -30t-33 -16t-31.5 -4.5q-14 -1 -29.5 -0.5
t-29.5 0.5h-32l-45 128h-439l-44 -128h-29h-34q-20 0 -45 1q-25 0 -41 9.5t-25.5 23t-13.5 29.5t-4 30v167h911zM163 247q-12 0 -21 -8.5t-9 -21.5t9 -21.5t21 -8.5q13 0 22 8.5t9 21.5t-9 21.5t-22 8.5zM316 123q-8 -26 -14 -48q-5 -19 -10.5 -37t-7.5 -25t-3 -15t1 -14.5
t9.5 -10.5t21.5 -4h37h67h81h80h64h36q23 0 34 12t2 38q-5 13 -9.5 30.5t-9.5 34.5q-5 19 -11 39h-368zM336 498v228q0 11 2.5 23t10 21.5t20.5 15.5t34 6h188q31 0 51.5 -14.5t20.5 -52.5v-227h-327z" />
    <glyph glyph-name="uniE600" unicode="&#xe600;" 
d="M701 -129l-415 417l411 412l35 -35l-375 -377l379 -382z" />
    <glyph glyph-name="uniE601" unicode="&#xe601;" 
d="M939 -150h-875v881h566v-52h-517v-775h778v307h48v-361zM373 108h-54v271q0 53 49.5 98.5t105.5 45.5h389l52 -54h-441q-35 0 -68 -29t-33 -61v-271zM803 326l-36 37l107 102l-107 102l36 38l146 -140z" />
    <glyph glyph-name="uniE602" unicode="&#xe602;" 
d="M514 162q-77 0 -132 55t-55 133t55 133t132.5 55t132.5 -55t55 -133q0 -38 -15 -73t-40 -60t-59.5 -40t-73.5 -15zM514.5 491q-58.5 0 -100 -41.5t-41.5 -99.5q0 -38 19 -70.5t51.5 -51.5t70.5 -19q59 0 100 41.5t41 99.5t-41 99.5t-99.5 41.5zM788 -46q-1 3 -2 5.5
t-1.5 5t-1.5 5t-2 4.5q-30 83 -103.5 139.5t-163.5 56.5q-87 0 -160 -54.5t-104 -134.5q-2 -6 -4 -10q-6 -18 -22 -11q-20 7 -14 32q1 5 3 11q41 89 123.5 151.5t177.5 62.5q97 0 179.5 -63.5t123.5 -153.5q3 -7 -13 -36q-12 -20 -16 -10zM514.5 -156q-72.5 0 -140.5 22.5
t-122.5 63.5t-95.5 96t-63.5 123t-22.5 140q0 90 35 172.5t94.5 142t142 95t172.5 35.5q73 0 140.5 -22.5t122.5 -64t96 -96t63.5 -122.5t22.5 -140t-22.5 -140t-63.5 -123t-96 -96t-122.5 -63.5t-140 -22.5zM514 687q-108 0 -199.5 -53.5t-145 -145t-53.5 -199.5
t53.5 -199.5t145 -145t199.5 -53.5q81 0 155 31.5t127 85t84.5 127t31.5 154.5t-31.5 154.5t-84.5 127t-127 85t-155 31.5z" />
    <glyph glyph-name="uniE603" unicode="&#xe603;" 
d="M910 -134h-846v847h648v-50h-598v-745h749v394h47v-446zM305 25l-34 36l655 610l34 -37z" />
    <glyph glyph-name="uniE604" unicode="&#xe604;" 
d="M826 291l1 1q2 11 -6.5 36t-17.5 45l-9 19h-1v1v1q4 59 -5 109t-28.5 87.5t-46.5 66t-60.5 46t-70 26.5t-75.5 9q-40 0 -79.5 -12t-76.5 -38.5t-64.5 -64.5t-44 -96t-15.5 -127l1 -2q-1 -2 -2 -3q-10 -12 -17.5 -27.5t-10.5 -28t-5 -23.5t-3 -18v-6h1q-13 -19 -25 -41.5
t-25.5 -60t-11.5 -79t24 -77.5l8 -1q20 3 51 65q28 -74 88 -125q-66 -15 -78 -47q-8 -10 -8 -21q0 -27 44 -46t106 -19q50 0 87 16t48 40q8 -1 12 -1h1h1q8 -23 50 -39t98 -16q59 0 99 22t40 50v2v1q0 5 -1.5 9.5t-4.5 8.5t-7 8t-9 8t-11.5 7.5t-13.5 6t-15 5.5t-17 5
q59 51 86 125q34 -69 55 -66q4 1 4 2q12 21 18 44t5.5 44.5t-6 44t-12.5 40t-16 35.5t-15.5 28.5t-13.5 20.5z" />
    <glyph glyph-name="uniE605" unicode="&#xe605;" 
d="M422 -156l-1 244h-359v580h896v-580h-300zM113 139h360l1 -167l161 167h271v475h-793v-475zM723 428h90v-90h-90v90zM510 428h90v-90h-90v90zM296 428h90v-90h-90v90z" />
    <glyph glyph-name="uniE606" unicode="&#xe606;" 
d="M512 442q-64 0 -109 -45.5t-45 -108.5q0 -21 5.5 -41t15.5 -37t24 -31t31 -24t37 -15.5t41 -5.5q25 0 48.5 7.5t42 22t33 33.5t22.5 42.5t8 48.5q0 21 -6 41t-15.5 36.5t-24 31t-31.5 24.5t-36.5 15.5t-40.5 5.5zM764 540v140h-504v-140h-196v-644h896v644h-196zM512 106
q-76 0 -129 53.5t-53 128.5t53 128.5t128.5 53.5t129 -53.5t53.5 -128.5q0 -25 -7 -48.5t-18.5 -43.5t-28.5 -37t-37 -28.5t-43.5 -18t-47.5 -6.5z" />
    <glyph glyph-name="uniE607" unicode="&#xe607;" 
d="M840 736h-657q-50 0 -85 -35.5t-35 -84.5v-657q0 -50 35 -85.5t85 -35.5h657q50 0 85 35.5t35 85.5v657q0 32 -16 60t-43.5 44t-60.5 16zM165 80q7 0 29.5 12t56.5 24.5t70 12.5q30 0 51.5 7t29.5 16.5t12 19.5t4 17l-1 7q-26 7 -50 31.5t-35 44.5l-10 21q-59 54 -19 81
l9 4q0 40 8 72t21.5 51t29.5 33t32 18.5t30.5 8.5t24 2.5t11.5 -0.5q5 1 12 1t23 -2.5t30.5 -7.5t32 -18.5t29.5 -32t20.5 -50.5t8.5 -72q1 -1 3 -2t7 -5t8 -8.5t5 -12.5t-0.5 -16.5t-10.5 -20.5t-22 -25q-2 -3 -4.5 -8t-12.5 -18.5t-20 -24.5t-26.5 -22t-32.5 -16
q1 0 -1 -7.5t3 -19t13 -22t29.5 -18.5t51.5 -8q34 0 67.5 -11.5t55.5 -23.5t30 -12h-603zM805 80q-17 0 -64 26.5t-85 33.5q-84 14 -90 33q7 3 15 9t15 14t14 17t12.5 17.5t10 15.5t7.5 12l2 4q21 19 31 39.5t9 36.5t-5 29t-9 20l-5 8q0 11 -1 22.5t-3 22t-4.5 20.5t-6 19.5
t-6 17t-5.5 14.5q18 -2 34.5 -9t36 -22.5t31.5 -49t12 -79.5q0 -1 1 -1.5t4 -2.5t5.5 -4.5t5 -6t4 -8t0.5 -10.5t-4 -13t-9.5 -15.5t-16.5 -17.5q-1 -2 -3.5 -6.5t-11 -16.5t-17.5 -21.5t-23 -19.5t-29 -14q2 -1 0 -7.5t2.5 -17t11.5 -20t25.5 -16.5t45.5 -7q16 0 32.5 -3.5
t28.5 -8.5t24 -11t20.5 -11t16.5 -8.5t12 -3.5h-71z" />
    <glyph glyph-name="uniE608" unicode="&#xe608;" 
d="M512 -160q-91 0 -174 35.5t-143 95.5t-95.5 143t-35.5 174q0 73 22.5 141.5t64 123.5t96.5 96.5t123.5 64t141.5 22.5q91 0 174 -35.5t143 -95.5t95.5 -143t35.5 -174q0 -41 -7.5 -80.5t-21 -75.5t-33 -69.5t-44.5 -63t-54 -54t-62.5 -44t-69.5 -33.5t-76 -21t-80 -7z
M512 557q-111 0 -190 -79t-79 -190q0 -55 21.5 -104.5t57.5 -85.5t85.5 -57.5t104.5 -21.5q111 0 190 79t79 190q0 115 -84 195q-79 73 -185 74z" />
    <glyph glyph-name="uniE609" unicode="&#xe609;" 
d="M64 292q0 -91 35.5 -174t95.5 -143t143 -95.5t174 -35.5t174 35.5t143 95.5t95.5 143t35.5 174q0 61 -16 119t-45 107t-70.5 90.5t-90.5 70t-107 45t-119 16.5q-91 0 -174 -35.5t-143 -95.5t-95.5 -143t-35.5 -174z" />
    <glyph glyph-name="uniE60A" unicode="&#xe60a;" 
d="M510.5 737q-91.5 0 -175 -35.5t-143.5 -95.5t-96 -143.5t-36 -175t36 -174.5t96 -143.5t143.5 -96t175 -35.5t174.5 35.5t143.5 96t96 143.5t35.5 174.5t-35.5 175t-96 143.5t-143.5 95.5t-174.5 35.5zM806 259h-601v74h601v-74z" />
    <glyph glyph-name="uniE60B" unicode="&#xe60b;" 
d="M64 288q0 -91 35.5 -174t95.5 -143t142.5 -95.5t174 -35.5t174 35.5t142.5 95.5t95.5 143t35.5 174q0 36 -6 72t-17 69t-27 64t-36 59t-45 52.5t-52.5 44.5t-58.5 36t-64 27t-69 17t-72 6q-92 0 -174.5 -35.5t-142.5 -95.5t-95.5 -142.5t-35.5 -173.5zM536 220
q55 10 91.5 53.5t36.5 100.5q0 65 -46 111t-111 46t-111 -46t-46 -111q0 -40 19 -74.5t51 -56t71 -25.5v-41h-90v-45h90v-125h45v125h89v45h-89v43zM395 374q0 30 15 56t41 41t56 15q46 0 79 -33t33 -79q0 -30 -15 -56t-41 -41t-56 -15q-46 0 -79 33t-33 79z" />
    <glyph glyph-name="uniE60C" unicode="&#xe60c;" 
d="M72 731h881v-55h-881v55zM72 455h881v-57h-881v57zM72 181h881v-55h-881v55zM72 -96h881v-54h-881v54z" />
    <glyph glyph-name="uniE60D" unicode="&#xe60d;" 
d="M55 288q0 -61 16 -119t44.5 -107t70 -90.5t90.5 -70t107 -45t119 -16.5q91 0 174 35.5t143 95.5t95.5 143t35.5 174t-35.5 174t-95.5 143t-143 95t-174 35t-174 -35t-143 -95t-95 -143t-35 -174zM535 463v-45h95l-97 -97q-20 15 -44 23t-50 8q-65 0 -111 -46t-46 -111
t46 -110.5t111 -45.5q43 0 79 21t57 57t21 78q0 52 -32 94l105 105v-109h45v178h-179zM439 83q-30 0 -56 15t-41 41t-15 56q0 47 33 79.5t79 32.5t79 -32.5t33 -79t-33 -79.5t-79 -33z" />
    <glyph glyph-name="uniE60E" unicode="&#xe60e;" 
d="M514 734q-90 0 -172.5 -35.5t-142 -95t-94.5 -142t-35 -172.5t35 -172.5t94.5 -142t142 -95t172.5 -35.5q73 0 140.5 22.5t122.5 63.5t96 96t63.5 123t22.5 140q0 60 -16 117.5t-44.5 106.5t-69.5 90t-90 70t-106.5 45t-118.5 16zM253 -11q19 44 51.5 81.5t76.5 63
t93 33.5q20 -5 40.5 -5t40.5 5q49 -8 93 -33.5t76.5 -63t50.5 -81.5q-112 -98 -260.5 -98t-261.5 98zM373 350q0 58 41.5 99.5t100 41.5t99.5 -41.5t41 -99.5q0 -32 -13.5 -60t-37 -48t-52.5 -28q-10 1 -19 2t-19 1q-18 0 -37 -3q-22 6 -41 19t-33 30.5t-22 40t-8 46.5z
M807 20q-14 28 -34 54t-43.5 48.5t-51.5 41.5t-58 31q38 26 60 67t22 88q0 51 -25 94t-68.5 68.5t-94.5 25.5q-77 0 -132 -55t-55 -133q0 -24 5.5 -46.5t16.5 -42.5t26 -36.5t33 -29.5q-59 -24 -107.5 -71t-78.5 -104q-106 114 -106 269q0 108 53.5 199.5t145 145
t199.5 53.5t200 -53.5t145 -145t53 -199.5q0 -155 -105 -269z" />
    <glyph glyph-name="uniE60F" unicode="&#xe60f;" 
d="M938 639h-264v102h-317v-102h-264v-53h89l42 -743h583l42 743h89v53zM409 688h213v-49h-213v49zM757 -104h-483l-39 690h561zM373 502l29 -522l-52 -3l-30 522zM657 502l53 -3l-30 -522l-52 3zM489 501h53v-522h-53v522z" />
    <glyph glyph-name="uniE610" unicode="&#xe610;" 
d="M899 513l-2 23l-26 1q-13 0 -35.5 2.5t-72 18.5t-94.5 42q-35 20 -75 55t-63 59l-23 25q-2 -4 -7 -10.5t-20 -25t-30.5 -35.5t-38.5 -36.5t-44 -31.5q-22 -13 -45.5 -23.5t-43.5 -17t-40 -11t-34.5 -7t-27.5 -3.5t-17.5 -1.5t-6.5 -0.5h-26v-25q0 -6 0.5 -14t1.5 -29.5
t3 -44t7 -54t11.5 -62t17 -66t23.5 -67.5t31.5 -65.5t39.5 -61.5q27 -34 63 -68.5t67.5 -59t59 -44t44.5 -29.5l16 -9q6 4 17.5 11t43.5 29.5t62 46.5t67 59.5t64 69.5q110 141 130 391q3 40 3 69zM725 79q-69 -89 -209 -173q-5 -3 -7 -4q-129 78 -206 177q-36 46 -61.5 107
t-38 121.5t-17.5 101.5t-7 77q45 4 101.5 20t113.5 49q65 38 116 98q20 -21 53.5 -48t72.5 -50q101 -59 211 -67q-10 -267 -122 -409zM536 381h-40v-54h-165v-246h37v23h128v-58h40v58h128v-23h37v246h-165v54zM496 139h-128v60h128v-60zM496 233h-128v59h128v-59zM664 139
h-128v60h128v-60zM664 292v-59h-128v59h128zM548 446q-6 8 -11.5 16.5t-12 16.5t-13.5 17l-34 -20q5 -8 10 -15.5t10 -14.5t9 -14h-220v-94h40v58h381v-58h39v94h-222z" />
    <glyph glyph-name="uniE611" unicode="&#xe611;" 
d="M960 -13q0 -30 -11 -56t-30.5 -45.5t-45.5 -30.5t-56 -11h-611q-59 0 -101 41.5t-42 101.5v611q0 59 42 101t101 42h611q30 0 56 -11.5t45.5 -30.5t30.5 -45.5t11 -55.5v-611zM920 599q0 28 -13.5 51.5t-37 37t-51.5 13.5h-613q-28 0 -51.5 -13.5t-37 -37t-13.5 -51.5
v-613q0 -43 30 -72.5t72 -29.5h613q43 0 72.5 29.5t29.5 72.5v613z" />
    <glyph glyph-name="uniE612" unicode="&#xe612;" 
d="M322 -129l-36 35l380 382l-375 378l35 35l411 -413z" />
    <glyph glyph-name="uniE613" unicode="&#xe613;" 
d="M958 -37q0 -51 -35.5 -86.5t-86.5 -35.5h-651q-50 0 -86 35.5t-36 86.5v651q0 50 36 86t86 36h651q51 0 86.5 -36t35.5 -86v-651zM863 392l-28 28l-342 -346l-240 257l-30 -28l269 -287z" />
    <glyph glyph-name="uniE614" unicode="&#xe614;" 
d="M820 -64h-614v440h-135v258l10 4q16 5 41.5 13.5t78 24t101 26t76.5 10.5h6l5 -5q12 -12 26.5 -21.5t30 -16.5t32.5 -10t35 -3q35 0 67 13t57 38l5 5h6q36 0 114 -20t117 -32.5t66 -21.5l10 -4v-258h-135v-440zM236 -34h554v441h134v205q-195 66 -270 69
q-29 -27 -65 -41.5t-76 -14.5q-82 0 -141 56q-74 -3 -271 -69v-205h135v-441zM725 501h-417v-56h177v-324h67v324h173v56z" />
    <glyph glyph-name="uniE615" unicode="&#xe615;" 
d="M513 737q-61 0 -119 -16t-107 -44.5t-90 -70t-70 -90.5t-45 -107t-16 -118q0 -91 35.5 -174t95.5 -142.5t142.5 -95t173.5 -35.5t173.5 35.5t142.5 95t95.5 142.5t35.5 174t-35.5 173.5t-95.5 142.5t-142.5 95t-173.5 35zM513 -63q-96 0 -177.5 47.5t-129 129
t-47.5 177.5q0 72 28 137.5t75.5 112.5t113 75t137.5 28q96 0 177.5 -47t129 -128.5t47.5 -177.5t-47.5 -177.5t-129 -129t-177.5 -47.5zM513 551q-71 0 -131 -34.5t-95 -95t-35 -131t35 -130.5t95 -95t131 -35t131 35t94.5 95t34.5 130.5t-34.5 131t-94.5 95t-131 34.5z
M638 119l-125 90l-125 -90l47 147l-124 91h154l48 146l48 -146h154l-124 -91z" />
    <glyph glyph-name="uniE616" unicode="&#xe616;" 
d="M960 391l-448 326l-448 -326l29 -39l64 46v-487h282v300h146v-300h282v487l64 -46zM818 -40h-184v300h-244v-300h-184v474l306 223l306 -223v-474z" />
  </font>
</defs>
</svg>
